<?xml version="1.0" encoding="UTF-8" standalone="no"?>
<!-- Created with Inkscape (http://www.inkscape.org/) -->

<svg
   width="160.92833mm"
   height="51.53487mm"
   viewBox="0 0 160.92833 51.53487"
   version="1.1"
   id="svg8"
   xml:space="preserve"
   xmlns="http://www.w3.org/2000/svg"
   xmlns:svg="http://www.w3.org/2000/svg"
   xmlns:rdf="http://www.w3.org/1999/02/22-rdf-syntax-ns#"
   xmlns:cc="http://creativecommons.org/ns#"
   xmlns:dc="http://purl.org/dc/elements/1.1/"><defs
     id="defs2"><rect
       x="2306.5823"
       y="510.5311"
       width="295.6257"
       height="83.04084"
       id="rect348" /></defs><metadata
     id="metadata5"><rdf:RDF><cc:Work
         rdf:about=""><dc:format>image/svg+xml</dc:format><dc:type
           rdf:resource="http://purl.org/dc/dcmitype/StillImage" /></cc:Work></rdf:RDF></metadata><g
     id="layer1"
     transform="translate(-494.24924,-460.2472)"><g
       id="g3"
       transform="translate(21.916101,194.57222)"
       style="fill:#85ebfe;fill-opacity:1"><text
         xml:space="preserve"
         transform="matrix(0.27367285,0,0,0.23358607,-133.21613,190.02853)"
         id="text348"
         style="font-style:normal;font-variant:normal;font-weight:bold;font-stretch:normal;font-size:28.4649px;line-height:1.25;font-family:Roboto;-inkscape-font-specification:'Roboto Bold';letter-spacing:0px;word-spacing:0px;white-space:pre;shape-inside:url(#rect348);display:inline;fill:#85ebfe;fill-opacity:1"><tspan
           x="2306.582"
           y="535.43804"
           id="tspan1">16 - O C T O B E R</tspan></text><path
         id="path6-8"
         mask="none"
         style="font-size:40px;line-height:1.25;font-family:Ethnocentric;-inkscape-font-specification:Ethnocentric;letter-spacing:0px;word-spacing:0px;fill:#85ebfe;fill-opacity:1;stroke-width:0.614103"
         d="m 633.26008,286.01949 c -1.8853,1.86732 -4.10729,3.42365 -6.19319,5.16221 l -0.50574,7.9721 -8.82646,-7.7163 c -1.87827,-1.1158 0.49131,-0.78024 -6.97899,-1.00028 l 0.31471,1.82483 h -0.01 c -0.03,0.71283 -0.19044,1.69147 -0.57574,3.03005 l -2.58853,9.80781 -0.12567,0.14384 -1.95248,0.87638 7.01869,-0.0169 2.09098,-9.87755 10.66535,8.96215 c 0.54135,0.45846 0.78609,0.81046 1.00483,0.91626 h 0.49601 l 0.006,-0.63449 -11.66008,-9.96197 0.14084,-0.18934 11.70714,10.00223 -0.008,0.0102 h 0.0381 l -0.006,0.77706 3.30977,0.0178 c 0.82969,-6.65134 1.79058,-13.40647 2.63988,-20.10494 z" /><path
         id="path4-6"
         mask="none"
         style="font-size:40px;line-height:1.25;font-family:Ethnocentric;-inkscape-font-specification:Ethnocentric;letter-spacing:0px;word-spacing:0px;fill:#85ebfe;fill-opacity:1;stroke-width:0.557527"
         d="m 587.85165,285.6991 c -0.29805,0.0114 -0.5795,0.0225 -0.84574,0.0316 h -2.4e-4 l -10.47473,12.32895 0.28514,8.06584 h 0.99667 l -0.30033,-7.72868 c 9.31711,-11.42386 10.33937,-12.70035 10.33937,-12.70035 z m -1.1838,0.044 c -5.34347,0.19516 -4.02431,0.11761 -5.73764,1.89614 -7.65581,7.94591 -5.02543,7.96134 -10.45995,0.17019 l -6.18541,-1.26252 c 0,0 0.64805,0.55665 7.21942,10.32151 1.09667,1.62963 2.13377,9.24826 2.13377,9.24826 l 2.97834,0.009 -0.28945,-8.1909 -0.01,-0.009 0.008,-0.0102 -2.4e-4,-0.013 h 0.0125 z" /><path
         id="path3-5"
         mask="none"
         style="font-size:40px;line-height:1.25;font-family:Ethnocentric;-inkscape-font-specification:Ethnocentric;letter-spacing:0px;word-spacing:0px;fill:#85ebfe;fill-opacity:1;stroke-width:0.555783"
         d="m 539.89021,290.95078 3.62528,6.09864 -0.31355,0.19573 c 2.77802,4.67886 4.09746,6.89869 4.69468,7.94821 l 19.58324,-0.16619 -2.01551,-8.3157 -10.30941,-0.0509 -1.95715,3.10093 9.67685,0.0186 -1.15771,2.68686 -9.60956,0.11008 c -1.98897,0.0225 -8.22842,-8.22923 -1.7323,-8.30096 l 11.80907,-0.13036 1.34522,-2.61635 h -7.89048 v -0.5559 c -6.17929,-0.0478 -13.91657,-0.0902 -15.74867,-0.0225 z m 27.63828,14.2773 -19.51827,0.16581 c 0.36905,0.6586 0.37386,0.73108 0.30849,0.73164 l 19.38561,-0.17214 z" /><path
         id="path2-0"
         mask="none"
         style="font-size:40px;line-height:1.25;font-family:Ethnocentric;-inkscape-font-specification:Ethnocentric;letter-spacing:0px;word-spacing:0px;fill:#85ebfe;fill-opacity:1;stroke-width:0.516017"
         d="m 531.75232,289.56903 c -1.319,0 -2.15108,0.75614 -2.71924,1.57501 l -9.23766,14.81731 2.77293,-0.7369 0.177,-0.047 1.96844,-0.52326 6.56664,-9.5241 2.82545,3.11056 c 0.44644,0.67186 3.062,3.11065 3.42727,3.61462 0,0 -1.07935,-0.11033 -4.44922,-0.9246 l -2.64105,-0.69576 -2.02641,3.79159 6.91988,0.89544 -0.0397,0.21085 7.87374,0.99278 -8.7397,-14.9815 c -0.5347,-0.91658 -1.42028,-1.57501 -2.67841,-1.57501 z" /><path
         id="flowRoot10-8"
         mask="none"
         style="font-size:40px;line-height:1.25;font-family:Ethnocentric;-inkscape-font-specification:Ethnocentric;letter-spacing:0px;word-spacing:0px;fill:#85ebfe;fill-opacity:1;stroke-width:1.03133"
         d="m 493.33587,265.67497 v 1.38522 h -15.91168 c -0.50898,1.09195 -1.0224,3.04084 -2.21584,6.52953 l 44.65359,-1.57857 c 7.09239,-0.25089 11.50416,-0.44436 12.17125,0.0633 0.56434,0.43035 -0.26818,1.39535 -0.96983,3.34163 -0.20082,0.55673 -0.13271,0.42343 -0.21862,0.60737 -0.34629,0.74136 -0.19665,0.42672 -0.28632,0.62846 -1.30219,2.93266 -0.41577,2.27969 -11.07499,2.42704 -9.0225,0.39716 -24.27866,0.5498 -26.40923,0.71698 -0.0934,0.12295 -2.58991,9.91619 -20.74103,37.41392 l 13.34962,-2.45357 12.90174,-29.23121 c 34.18627,-0.89142 35.63432,-0.26716 36.8981,-2.95394 8.58019,-18.24152 9.32622,-16.62708 1.90853,-16.73182 -1.09963,0 -9.1649,-0.0225 -9.1649,-0.0225 v 0 z" /><path
         id="path29"
         style="font-size:40px;line-height:1.25;font-family:Ethnocentric;-inkscape-font-specification:Ethnocentric;letter-spacing:0px;word-spacing:0px;white-space:pre;fill:#85ebfe;fill-opacity:1;stroke-width:0.656134"
         d="m 512.67908,288.56676 -8.99646,0.0532 -1.99839,2.92914 6.12783,0.14592 -0.0903,0.61528 4.80594,-0.0325 c 1.84103,-0.0128 2.95577,0.69061 2.95577,2.0719 0,1.22191 -1.29624,1.99227 -2.95577,1.99227 l -9.01553,-0.0532 -5.32879,9.83528 h 4.63013 c 2.87999,-7.13469 1.56633,-7.07599 6.43865,-7.0902 0.32549,0.26586 0.52896,0.60723 0.63993,0.99547 0.62247,2.17756 0.76909,6.08477 0.76909,6.08477 l 7.17081,0.0114 c 0,0 -4.79992,-4.82487 -4.50873,-6.13414 v -0.008 c 4.38173,0.29891 6.35168,-3.44629 6.42463,-6.20787 0.14812,-5.60486 0.42711,-5.21079 -7.06885,-5.21079 z" /><path
         id="path5"
         mask="none"
         style="font-size:40px;line-height:1.25;font-family:Ethnocentric;-inkscape-font-specification:Ethnocentric;letter-spacing:0px;word-spacing:0px;fill:#85ebfe;fill-opacity:1;stroke-width:0.516017"
         d="m 593.21894,289.56903 c -1.31897,0 -2.15107,0.75614 -2.71924,1.57501 l -9.23766,14.81731 2.77293,-0.7369 0.17701,-0.047 1.96846,-0.52326 6.56663,-9.5241 2.82546,3.11056 c 0.44643,0.67186 3.06197,3.11065 3.42725,3.61462 0,0 -1.07935,-0.11033 -4.44921,-0.9246 l -2.64107,-0.69576 -2.0264,3.79159 6.91989,0.89544 -0.0397,0.21085 7.87376,0.99278 -8.73971,-14.9815 c -0.5347,-0.91658 -1.42028,-1.57501 -2.6784,-1.57501 z" /><g
         id="g20"
         transform="matrix(0.7061102,0,0,0.72337097,44.765134,-211.04763)"
         style="fill:#85ebfe;fill-opacity:1"><path
           style="font-size:10.5833px;line-height:1.25;letter-spacing:0px;word-spacing:0px;fill:#85ebfe;fill-opacity:1;stroke-width:0.286519"
           d="m 793.86609,725.2447 q 0,0.58198 -0.21266,1.11362 -0.21265,0.53162 -0.58198,0.89537 -0.40292,0.39172 -0.96254,0.60437 -0.55401,0.20706 -1.28709,0.20706 -0.68272,0 -1.31507,-0.14549 -0.63236,-0.13991 -1.06886,-0.34137 v -1.18078 h 0.0784 q 0.45887,0.291 1.07444,0.49806 0.61557,0.20146 1.20876,0.20146 0.39732,0 0.76666,-0.11192 0.37493,-0.11193 0.66593,-0.39173 0.24623,-0.24063 0.36934,-0.5764 0.12871,-0.33576 0.12871,-0.77785 0,-0.43089 -0.15109,-0.72749 -0.14549,-0.29659 -0.40851,-0.47567 -0.291,-0.21265 -0.71071,-0.29659 -0.41411,-0.0895 -0.92895,-0.0895 -0.49245,0 -0.95133,0.0672 -0.45328,0.0672 -0.78345,0.1343 v -4.29219 h 5.01408 v 0.97933 h -3.93403 v 2.21604 q 0.24062,-0.0225 0.49245,-0.0335 0.25182,-0.0112 0.4365,-0.0112 0.67712,0 1.18635,0.11751 0.50926,0.11193 0.93455,0.40292 0.4477,0.30779 0.69392,0.79464 0.24622,0.48685 0.24622,1.21994 z"
           id="path10" /><g
           id="g18"
           style="fill:#85ebfe;fill-opacity:1"><path
             style="font-size:10.5833px;line-height:1.25;letter-spacing:0px;word-spacing:0px;fill:#85ebfe;fill-opacity:1;stroke-width:0.286519"
             d="m 763.23317,723.72256 q 0,2.24404 -0.7051,3.29609 -0.69951,1.04647 -2.17688,1.04647 -1.49975,0 -2.19366,-1.06326 -0.68832,-1.06325 -0.68832,-3.26811 0,-2.22164 0.69952,-3.2793 0.6995,-1.06325 2.18246,-1.06325 1.49976,0 2.18806,1.08005 0.69392,1.07444 0.69392,3.25131 z m -1.47177,2.54062 q 0.19587,-0.45328 0.26302,-1.06326 0.0728,-0.61557 0.0728,-1.47736 0,-0.8506 -0.0728,-1.47737 -0.0672,-0.62675 -0.26861,-1.06325 -0.19586,-0.43089 -0.53723,-0.64914 -0.33576,-0.21825 -0.86739,-0.21825 -0.52602,0 -0.87299,0.21825 -0.34135,0.21825 -0.54282,0.66034 -0.19026,0.4141 -0.26301,1.08004 -0.0672,0.66593 -0.0672,1.46057 0,0.87299 0.0616,1.46057 0.0615,0.5876 0.26301,1.05208 0.18467,0.43648 0.52042,0.66592 0.34137,0.22945 0.90098,0.22945 0.52603,0 0.87299,-0.21825 0.34696,-0.21825 0.53722,-0.66034 z"
             id="path8" /><path
             style="font-size:10.5833px;line-height:1.25;letter-spacing:0px;word-spacing:0px;fill:#85ebfe;fill-opacity:1;stroke-width:0.286519"
             d="m 747.89993,727.89164 h -5.64084 v -1.16958 c 0.39172,-0.33577 0.78344,-0.67153 1.17517,-1.00729 0.39546,-0.33577 0.76294,-0.66967 1.10243,-1.0017 0.71629,-0.69391 1.20688,-1.24419 1.47177,-1.65084 0.26488,-0.41038 0.39732,-0.85247 0.39732,-1.32627 0,-0.43277 -0.14363,-0.7704 -0.4309,-1.01289 -0.28353,-0.24622 -0.68085,-0.36933 -1.19196,-0.36933 -0.3395,0 -0.70698,0.0597 -1.10243,0.17906 -0.39546,0.11938 -0.78159,0.30219 -1.15839,0.54842 h -0.056 v -1.17518 c 0.26488,-0.13057 0.61743,-0.24995 1.05765,-0.35814 0.44396,-0.10819 0.87299,-0.16229 1.2871,-0.16229 0.85433,0 1.524,0.20705 2.00899,0.62116 0.48499,0.41038 0.72749,0.96812 0.72749,1.67323 0,0.31711 -0.041,0.6137 -0.12311,0.88977 -0.0783,0.27234 -0.19586,0.53163 -0.35255,0.77786 -0.14549,0.23131 -0.31711,0.45888 -0.51485,0.68272 -0.19399,0.22384 -0.43089,0.47193 -0.71069,0.74428 -0.39919,0.39172 -0.81143,0.77225 -1.23674,1.1416 -0.42529,0.3656 -0.82261,0.70509 -1.19196,1.01847 h 4.48245 v 0.0217 z"
             id="text8" /><path
             style="fill:#85ebfe;fill-opacity:1;stroke-width:0.0167043"
             d="m 747.69486,727.33241 v -0.12528 l 1.76456,-0.004 1.76456,-0.004 1.46767,-2.57156 c 0.80722,-1.41436 1.47333,-2.57712 1.48026,-2.5839 0.0122,-0.0119 2.89396,-0.0983 3.27203,-0.0981 l 0.18581,8e-5 0.0106,0.0522 c 0.006,0.0287 0.0103,0.0809 0.0103,0.11591 0,0.0624 -0.003,0.0639 -0.071,0.0727 -0.0391,0.005 -0.7851,0.0281 -1.65791,0.0516 -1.58102,0.0424 -1.587,0.0427 -1.61197,0.0784 -0.0138,0.0198 -0.67985,1.18279 -1.48016,2.58461 l -1.4551,2.54873 -1.83984,0.004 -1.8398,0.004 z"
             id="path13" /><path
             style="fill:#85ebfe;fill-opacity:1;stroke-width:0.0118118"
             d="m 762.86818,722.00666 v -0.12779 l 0.18012,-0.008 c 0.35029,-0.0159 3.39286,-0.13513 3.39453,-0.13314 0,0 0.004,0.0585 0.006,0.12747 l 0.005,0.12547 -0.1597,0.008 c -0.0878,0.004 -0.83473,0.0338 -1.65978,0.0658 -0.82505,0.032 -1.55991,0.0609 -1.63299,0.0643 l -0.13287,0.006 z"
             id="path15" /><path
             id="path16"
             style="fill:#85ebfe;fill-opacity:1;stroke-width:0.264583"
             d="m 767.72885,720.46972 a 1.3819754,1.3347285 0 0 0 -1.38235,1.3348 1.3819754,1.3347285 0 0 0 1.38235,1.3348 1.3819754,1.3347285 0 0 0 1.38183,-1.3348 1.3819754,1.3347285 0 0 0 -1.38183,-1.3348 z m 0.0103,0.5116 a 0.86414349,0.83460015 0 0 1 0.86403,0.83457 0.86414349,0.83460015 0 0 1 -0.86403,0.83457 0.86414349,0.83460015 0 0 1 -0.86403,-0.83457 0.86414349,0.83460015 0 0 1 0.86403,-0.83457 z" /></g><g
           id="g19"
           transform="translate(0,0.17348)"
           style="fill:#85ebfe;fill-opacity:1"><path
             style="font-size:10.5833px;line-height:1.25;letter-spacing:0px;word-spacing:0px;fill:#85ebfe;fill-opacity:1;stroke-width:0.286519"
             d="m 778.58881,727.89164 h -5.64085 v -1.16958 q 0.58758,-0.50365 1.17517,-1.00729 0.59319,-0.50365 1.10243,-1.0017 1.07445,-1.04087 1.47177,-1.65084 0.39732,-0.61557 0.39732,-1.32627 0,-0.64915 -0.4309,-1.01289 -0.4253,-0.36933 -1.19197,-0.36933 -0.50923,0 -1.10241,0.17906 -0.59319,0.17907 -1.1584,0.54842 h -0.056 v -1.17518 q 0.39732,-0.19586 1.05765,-0.35814 0.66594,-0.16229 1.28711,-0.16229 1.28149,0 2.00899,0.62116 0.72749,0.61557 0.72749,1.67323 0,0.47566 -0.12312,0.88977 -0.11751,0.40851 -0.35255,0.77786 -0.21824,0.34696 -0.51484,0.68272 -0.291,0.33576 -0.71069,0.74428 -0.59879,0.58758 -1.23675,1.1416 -0.63795,0.5484 -1.19195,1.01847 h 4.48245 z"
             id="path9" /><path
             id="path18"
             style="fill:#85ebfe;fill-opacity:1;stroke-width:0.264583"
             d="m 784.34967,720.3695 a 1.3819754,1.3347285 0 0 0 -1.38235,1.3348 1.3819754,1.3347285 0 0 0 1.38235,1.3348 1.3819754,1.3347285 0 0 0 1.38183,-1.3348 1.3819754,1.3347285 0 0 0 -1.38183,-1.3348 z m 0.0103,0.5116 a 0.86414349,0.83460015 0 0 1 0.86403,0.83457 0.86414349,0.83460015 0 0 1 -0.86403,0.83457 0.86414349,0.83460015 0 0 1 -0.86403,-0.83457 0.86414349,0.83460015 0 0 1 0.86403,-0.83457 z" /><path
             style="fill:#85ebfe;fill-opacity:1;stroke-width:0.0167043"
             d="m 778.46426,727.36565 v -0.12528 h 2.28711 2.28712 l 0.0188,-0.0877 c 0.0183,-0.0852 0.87744,-4.17034 0.89524,-4.25704 l 0.009,-0.0433 0.12568,0.0249 c 0.11401,0.0228 0.12488,0.0283 0.11697,0.0601 -0.005,0.0193 -0.21982,1.03857 -0.47778,2.26507 -0.25797,1.22653 -0.47308,2.24319 -0.478,2.25928 -0.008,0.0276 -0.13719,0.0292 -2.39654,0.0292 h -2.38758 z"
             id="path19" /></g></g></g></g></svg>
